<svg width="188" height="38" viewBox="0 0 188 38" fill="none" xmlns="http://www.w3.org/2000/svg">
<g clip-path="url(#clip0_52009_3)">
<g filter="url(#filter0_dd_52009_3)">
<path d="M27.0001 2.09998H11.0001C6.63705 2.09998 3.1001 5.63693 3.1001 9.99998V26C3.1001 30.363 6.63705 33.9 11.0001 33.9H27.0001C31.3631 33.9 34.9001 30.363 34.9001 26V9.99998C34.9001 5.63693 31.3631 2.09998 27.0001 2.09998Z" fill="white"/>
<path d="M27.0001 2.09998H11.0001C6.63705 2.09998 3.1001 5.63693 3.1001 9.99998V26C3.1001 30.363 6.63705 33.9 11.0001 33.9H27.0001C31.3631 33.9 34.9001 30.363 34.9001 26V9.99998C34.9001 5.63693 31.3631 2.09998 27.0001 2.09998Z" fill="url(#paint0_linear_52009_3)"/>
<path d="M27.0001 2.09998H11.0001C6.63705 2.09998 3.1001 5.63693 3.1001 9.99998V26C3.1001 30.363 6.63705 33.9 11.0001 33.9H27.0001C31.3631 33.9 34.9001 30.363 34.9001 26V9.99998C34.9001 5.63693 31.3631 2.09998 27.0001 2.09998Z" stroke="#D0D5DD" stroke-width="0.2"/>
<path d="M18.3546 13.1827C22.7105 11.4503 27.4742 12.8184 29.6373 14.9132C30.106 15.3671 30.5041 15.8275 30.845 16.2851C31.0394 15.2107 31.0552 14.1405 30.8681 13.1055C30.1847 9.32649 26.6195 7.18561 23.4233 8.29149C20.2415 9.3924 19.0005 11.5321 19.0005 11.5321C19.0005 11.5321 17.7595 9.3924 14.5777 8.29149C11.3812 7.18561 7.81603 9.32672 7.1328 13.1055C6.62842 15.8944 7.58356 18.9391 9.61033 21.6298C10.0372 21.7732 10.4847 21.8809 10.9586 21.943C13.7978 22.3163 14.8184 21.557 16.0178 21.0486C16.8142 20.7112 17.4134 21.0942 17.3843 21.3626C17.3392 21.7786 15.7693 22.4895 16.106 22.6388C17.4351 23.2284 19.0718 23.2334 20.3053 22.18C21.838 20.8712 22.4114 21.7658 22.4114 21.7658C22.4114 21.7658 21.6502 23.7076 19.3581 24.6717C17.4457 25.4761 15.4419 25.6743 13.6107 25.4683C15.19 26.5846 17.0035 27.5204 19.0005 28.1882C24.7099 26.2784 28.9276 22.1871 30.4145 17.9096C29.4072 16.9157 28.1716 16.2995 26.6988 16.0763C23.8674 15.647 22.8322 16.3862 21.6228 16.8708C20.8198 17.1926 20.2285 16.7978 20.263 16.5299C20.3161 16.1148 21.8999 15.4351 21.5661 15.279C20.249 14.6633 18.6125 14.626 17.3585 15.6548C15.8003 16.9332 15.2446 16.0274 15.2446 16.0274C15.2446 16.0274 16.0438 14.1015 18.3546 13.1827ZM17.2709 18.5051H18.3709V17.4052H19.6296V18.5051H20.7296V19.7639H19.6296V20.8638H18.3709V19.7639H17.2709V18.5051Z" fill="#5494F9"/>
<path d="M17.2709 18.5052H18.3709V17.4052H19.6296V18.5052H20.7296V19.7639H19.6379C21.2597 20.5834 24.2383 21.8027 27.8177 22.3451C28.9956 20.9517 29.8813 19.4428 30.4143 17.9096C29.4069 16.9157 28.1714 16.2996 26.6986 16.0763C23.8672 15.647 22.8319 16.3863 21.6226 16.8708C20.8196 17.1926 20.2283 16.7978 20.2628 16.5299C20.3159 16.1148 21.8997 15.4351 21.5659 15.279C20.2488 14.6633 18.6123 14.626 17.3583 15.6548C15.8 16.9332 15.2444 16.0274 15.2444 16.0274C15.2444 16.0274 16.0438 14.1013 18.3543 13.1823C22.7103 11.4499 27.474 12.818 29.6371 14.9128C30.1058 15.3666 30.5038 15.8271 30.8448 16.2847C31.0392 15.2102 31.055 14.14 30.8679 13.105C30.1844 9.326 26.6192 7.18512 23.423 8.291C20.2413 9.39191 19.0002 11.5316 19.0002 11.5316C19.0002 11.5316 17.7592 9.39191 14.5775 8.291C12.752 7.65927 10.8067 8.0883 9.34619 9.27521C10.0323 10.7442 10.836 12.1168 13.1255 14.8773C14.9869 17.1222 17.2709 18.5052 17.2709 18.5052Z" fill="#5494F9"/>
<path opacity="0.31" d="M27.277 9.64942C24.2713 8.13932 21.1691 10.489 20.1851 11.7298C21.8821 11.3724 23.3669 11.189 25.2458 11.5838C28.0252 12.1678 29.0654 13.1714 30.3064 14.6541C30.0872 11.9068 28.352 10.1895 27.277 9.64942Z" fill="#5494F9"/>
</g>
<path d="M49.8962 28V13H45.2642V10.12H57.7442V13H53.1842V28H49.8962ZM63.9765 28.288C62.6325 28.288 61.4565 27.984 60.4485 27.376C59.4405 26.768 58.6565 25.944 58.0965 24.904C57.5365 23.864 57.2565 22.712 57.2565 21.448C57.2565 20.136 57.5365 18.976 58.0965 17.968C58.6725 16.944 59.4485 16.136 60.4245 15.544C61.4165 14.952 62.5205 14.656 63.7365 14.656C64.7605 14.656 65.6565 14.824 66.4245 15.16C67.2085 15.496 67.8725 15.96 68.4165 16.552C68.9605 17.144 69.3765 17.824 69.6645 18.592C69.9525 19.344 70.0965 20.16 70.0965 21.04C70.0965 21.264 70.0805 21.496 70.0485 21.736C70.0325 21.976 69.9925 22.184 69.9285 22.36H59.8485V19.96H68.1525L66.6645 21.088C66.8085 20.352 66.7685 19.696 66.5445 19.12C66.3365 18.544 65.9845 18.088 65.4885 17.752C65.0085 17.416 64.4245 17.248 63.7365 17.248C63.0805 17.248 62.4965 17.416 61.9845 17.752C61.4725 18.072 61.0805 18.552 60.8085 19.192C60.5525 19.816 60.4565 20.576 60.5205 21.472C60.4565 22.272 60.5605 22.984 60.8325 23.608C61.1205 24.216 61.5365 24.688 62.0805 25.024C62.6405 25.36 63.2805 25.528 64.0005 25.528C64.7205 25.528 65.3285 25.376 65.8245 25.072C66.3365 24.768 66.7365 24.36 67.0245 23.848L69.5685 25.096C69.3125 25.72 68.9125 26.272 68.3685 26.752C67.8245 27.232 67.1765 27.608 66.4245 27.88C65.6885 28.152 64.8725 28.288 63.9765 28.288ZM72.4798 28V14.944H75.4318V17.968L75.0958 17.464C75.3358 16.52 75.8158 15.816 76.5358 15.352C77.2558 14.888 78.1038 14.656 79.0798 14.656C80.1518 14.656 81.0958 14.936 81.9118 15.496C82.7278 16.056 83.2558 16.792 83.4958 17.704L82.6078 17.776C83.0078 16.736 83.6078 15.96 84.4078 15.448C85.2078 14.92 86.1278 14.656 87.1678 14.656C88.0958 14.656 88.9198 14.864 89.6398 15.28C90.3758 15.696 90.9518 16.28 91.3678 17.032C91.7838 17.768 91.9918 18.624 91.9918 19.6V28H88.8478V20.344C88.8478 19.768 88.7438 19.272 88.5358 18.856C88.3278 18.44 88.0398 18.12 87.6718 17.896C87.3038 17.656 86.8558 17.536 86.3278 17.536C85.8318 17.536 85.3918 17.656 85.0078 17.896C84.6238 18.12 84.3278 18.44 84.1198 18.856C83.9118 19.272 83.8078 19.768 83.8078 20.344V28H80.6638V20.344C80.6638 19.768 80.5598 19.272 80.3518 18.856C80.1438 18.44 79.8478 18.12 79.4638 17.896C79.0958 17.656 78.6558 17.536 78.1438 17.536C77.6478 17.536 77.2078 17.656 76.8238 17.896C76.4398 18.12 76.1438 18.44 75.9358 18.856C75.7278 19.272 75.6238 19.768 75.6238 20.344V28H72.4798ZM99.3077 28.288C98.2997 28.288 97.4197 28.064 96.6677 27.616C95.9317 27.168 95.3637 26.544 94.9637 25.744C94.5797 24.944 94.3877 24.008 94.3877 22.936V14.944H97.5317V22.672C97.5317 23.216 97.6357 23.696 97.8437 24.112C98.0677 24.512 98.3797 24.832 98.7797 25.072C99.1957 25.296 99.6597 25.408 100.172 25.408C100.684 25.408 101.14 25.296 101.54 25.072C101.94 24.832 102.252 24.504 102.476 24.088C102.7 23.672 102.812 23.176 102.812 22.6V14.944H105.956V28H102.98V25.432L103.244 25.888C102.94 26.688 102.436 27.288 101.732 27.688C101.044 28.088 100.236 28.288 99.3077 28.288ZM109.142 28V10.12H114.974C116.862 10.12 118.502 10.504 119.894 11.272C121.302 12.024 122.39 13.072 123.158 14.416C123.926 15.744 124.31 17.288 124.31 19.048C124.31 20.792 123.926 22.344 123.158 23.704C122.39 25.048 121.302 26.104 119.894 26.872C118.502 27.624 116.862 28 114.974 28H109.142ZM112.406 25.12H115.046C116.262 25.12 117.31 24.872 118.19 24.376C119.086 23.864 119.782 23.16 120.278 22.264C120.774 21.352 121.022 20.28 121.022 19.048C121.022 17.8 120.774 16.728 120.278 15.832C119.782 14.936 119.086 14.24 118.19 13.744C117.31 13.248 116.262 13 115.046 13H112.406V25.12ZM133.028 28.288C131.748 28.288 130.58 27.992 129.524 27.4C128.484 26.808 127.652 26 127.028 24.976C126.42 23.952 126.116 22.784 126.116 21.472C126.116 20.16 126.42 18.992 127.028 17.968C127.652 16.944 128.484 16.136 129.524 15.544C130.564 14.952 131.732 14.656 133.028 14.656C134.308 14.656 135.468 14.952 136.508 15.544C137.548 16.136 138.372 16.944 138.98 17.968C139.604 18.976 139.916 20.144 139.916 21.472C139.916 22.784 139.604 23.952 138.98 24.976C138.356 26 137.524 26.808 136.484 27.4C135.444 27.992 134.292 28.288 133.028 28.288ZM133.028 25.408C133.732 25.408 134.348 25.24 134.876 24.904C135.42 24.568 135.844 24.104 136.148 23.512C136.468 22.904 136.628 22.224 136.628 21.472C136.628 20.704 136.468 20.032 136.148 19.456C135.844 18.864 135.42 18.4 134.876 18.064C134.348 17.712 133.732 17.536 133.028 17.536C132.308 17.536 131.676 17.712 131.132 18.064C130.588 18.4 130.156 18.864 129.836 19.456C129.532 20.032 129.38 20.704 129.38 21.472C129.38 22.224 129.532 22.904 129.836 23.512C130.156 24.104 130.588 24.568 131.132 24.904C131.676 25.24 132.308 25.408 133.028 25.408ZM142.3 28V9.83203H145.444V21.736L144.244 21.376L150.388 14.944H154.3L149.476 20.2L154.396 28H150.796L146.524 21.232L148.396 20.848L144.46 25.072L145.444 23.152V28H142.3ZM162.104 28.144C160.632 28.144 159.488 27.744 158.672 26.944C157.872 26.128 157.472 24.984 157.472 23.512V17.752H155.216V14.944H155.456C156.096 14.944 156.592 14.776 156.944 14.44C157.296 14.104 157.472 13.616 157.472 12.976V11.968H160.616V14.944H163.616V17.752H160.616V23.344C160.616 23.776 160.688 24.144 160.832 24.448C160.992 24.752 161.232 24.984 161.552 25.144C161.888 25.304 162.312 25.384 162.824 25.384C162.936 25.384 163.064 25.376 163.208 25.36C163.368 25.344 163.52 25.328 163.664 25.312V28C163.44 28.032 163.184 28.064 162.896 28.096C162.608 28.128 162.344 28.144 162.104 28.144ZM172.14 28.288C170.796 28.288 169.62 27.984 168.612 27.376C167.604 26.768 166.82 25.944 166.26 24.904C165.7 23.864 165.42 22.712 165.42 21.448C165.42 20.136 165.7 18.976 166.26 17.968C166.836 16.944 167.612 16.136 168.588 15.544C169.58 14.952 170.684 14.656 171.9 14.656C172.924 14.656 173.82 14.824 174.588 15.16C175.372 15.496 176.036 15.96 176.58 16.552C177.124 17.144 177.54 17.824 177.828 18.592C178.116 19.344 178.26 20.16 178.26 21.04C178.26 21.264 178.244 21.496 178.212 21.736C178.196 21.976 178.156 22.184 178.092 22.36H168.012V19.96H176.316L174.828 21.088C174.972 20.352 174.932 19.696 174.708 19.12C174.5 18.544 174.148 18.088 173.652 17.752C173.172 17.416 172.588 17.248 171.9 17.248C171.244 17.248 170.66 17.416 170.148 17.752C169.636 18.072 169.244 18.552 168.972 19.192C168.716 19.816 168.62 20.576 168.684 21.472C168.62 22.272 168.724 22.984 168.996 23.608C169.284 24.216 169.7 24.688 170.244 25.024C170.804 25.36 171.444 25.528 172.164 25.528C172.884 25.528 173.492 25.376 173.988 25.072C174.5 24.768 174.9 24.36 175.188 23.848L177.732 25.096C177.476 25.72 177.076 26.272 176.532 26.752C175.988 27.232 175.34 27.608 174.588 27.88C173.852 28.152 173.036 28.288 172.14 28.288ZM180.644 28V14.944H183.596V17.848L183.356 17.416C183.66 16.44 184.132 15.76 184.772 15.376C185.428 14.992 186.212 14.8 187.124 14.8H187.892V17.584H186.764C185.868 17.584 185.148 17.864 184.604 18.424C184.06 18.968 183.788 19.736 183.788 20.728V28H180.644Z" fill="#0073D6"/>
</g>
<defs>
<filter id="filter0_dd_52009_3" x="0" y="0" width="38" height="38" filterUnits="userSpaceOnUse" color-interpolation-filters="sRGB">
<feFlood flood-opacity="0" result="BackgroundImageFix"/>
<feColorMatrix in="SourceAlpha" type="matrix" values="0 0 0 0 0 0 0 0 0 0 0 0 0 0 0 0 0 0 127 0" result="hardAlpha"/>
<feOffset dy="1"/>
<feGaussianBlur stdDeviation="1"/>
<feColorMatrix type="matrix" values="0 0 0 0 0.0627451 0 0 0 0 0.0941176 0 0 0 0 0.156863 0 0 0 0.06 0"/>
<feBlend mode="normal" in2="BackgroundImageFix" result="effect1_dropShadow_52009_3"/>
<feColorMatrix in="SourceAlpha" type="matrix" values="0 0 0 0 0 0 0 0 0 0 0 0 0 0 0 0 0 0 127 0" result="hardAlpha"/>
<feOffset dy="1"/>
<feGaussianBlur stdDeviation="1.5"/>
<feColorMatrix type="matrix" values="0 0 0 0 0.0627451 0 0 0 0 0.0941176 0 0 0 0 0.156863 0 0 0 0.1 0"/>
<feBlend mode="normal" in2="effect1_dropShadow_52009_3" result="effect2_dropShadow_52009_3"/>
<feBlend mode="normal" in="SourceGraphic" in2="effect2_dropShadow_52009_3" result="shape"/>
</filter>
<linearGradient id="paint0_linear_52009_3" x1="19.0001" y1="1.99998" x2="19.0001" y2="34" gradientUnits="userSpaceOnUse">
<stop stop-color="white"/>
<stop offset="1" stop-color="#D0D5DD"/>
</linearGradient>
<clipPath id="clip0_52009_3">
<rect width="188" height="38" fill="white"/>
</clipPath>
</defs>
</svg>
